<svg width="16" height="14" viewBox="0 0 16 14" fill="none" xmlns="http://www.w3.org/2000/svg">
<path d="M15.3281 2.60938C15.4336 2.60938 15.5391 2.57422 15.6094 2.50391C15.6797 2.43359 15.75 2.32812 15.75 2.1875V1.0625C15.75 0.957031 15.6797 0.851562 15.6094 0.78125C15.5391 0.710938 15.4336 0.640625 15.3281 0.640625H0.421875C0.28125 0.640625 0.175781 0.710938 0.105469 0.78125C0.0351562 0.851562 0 0.957031 0 1.0625V2.1875C0 2.32812 0.0351562 2.43359 0.105469 2.50391C0.175781 2.57422 0.28125 2.60938 0.421875 2.60938H15.3281ZM15.3281 8.23438C15.4336 8.23438 15.5391 8.19922 15.6094 8.12891C15.6797 8.05859 15.75 7.95312 15.75 7.8125V6.6875C15.75 6.58203 15.6797 6.47656 15.6094 6.40625C15.5391 6.33594 15.4336 6.26562 15.3281 6.26562H0.421875C0.28125 6.26562 0.175781 6.33594 0.105469 6.40625C0.0351562 6.47656 0 6.58203 0 6.6875V7.8125C0 7.95312 0.0351562 8.05859 0.105469 8.12891C0.175781 8.19922 0.28125 8.23438 0.421875 8.23438H15.3281ZM15.3281 13.8594C15.4336 13.8594 15.5391 13.8242 15.6094 13.7539C15.6797 13.6836 15.75 13.5781 15.75 13.4375V12.3125C15.75 12.207 15.6797 12.1016 15.6094 12.0312C15.5391 11.9609 15.4336 11.8906 15.3281 11.8906H0.421875C0.28125 11.8906 0.175781 11.9609 0.105469 12.0312C0.0351562 12.1016 0 12.207 0 12.3125V13.4375C0 13.5781 0.0351562 13.6836 0.105469 13.7539C0.175781 13.8242 0.28125 13.8594 0.421875 13.8594H15.3281Z" fill="white"/>
</svg>
