<svg width="12" height="12" viewBox="0 0 12 12" fill="none" xmlns="http://www.w3.org/2000/svg">
<path d="M7.3125 6.25L11.0742 10.0469C11.1797 10.1523 11.25 10.293 11.25 10.4336C11.25 10.6094 11.1797 10.75 11.0742 10.8203L10.1953 11.6992C10.0898 11.8398 9.94922 11.875 9.80859 11.875C9.63281 11.875 9.49219 11.8398 9.42188 11.6992L5.625 7.9375L1.82812 11.6992C1.72266 11.8398 1.58203 11.875 1.44141 11.875C1.26562 11.875 1.125 11.8398 1.05469 11.6992L0.175781 10.8203C0.0351562 10.75 0 10.6094 0 10.4336C0 10.293 0.0351562 10.1523 0.175781 10.0469L3.9375 6.25L0.175781 2.45312C0.0351562 2.38281 0 2.24219 0 2.06641C0 1.92578 0.0351562 1.78516 0.175781 1.67969L1.05469 0.800781C1.125 0.695312 1.26562 0.625 1.44141 0.625C1.58203 0.625 1.72266 0.695312 1.82812 0.800781L5.625 4.5625L9.42188 0.800781C9.49219 0.695312 9.63281 0.625 9.80859 0.625C9.94922 0.625 10.0898 0.695312 10.1953 0.800781L11.0742 1.67969C11.1797 1.78516 11.25 1.92578 11.25 2.06641C11.25 2.24219 11.1797 2.38281 11.0742 2.45312L7.3125 6.25Z" fill="white"/>
</svg>
