<svg width="18" height="19" viewBox="0 0 18 19" fill="none" xmlns="http://www.w3.org/2000/svg">
<path d="M11.25 1.9375C10.3359 1.9375 9.49219 2.18359 8.71875 2.64062C7.94531 3.09766 7.3125 3.69531 6.85547 4.46875C6.39844 5.24219 6.1875 6.08594 6.1875 7C6.1875 7.49219 6.25781 7.98438 6.39844 8.47656L1.6875 13.1875V16.5625H5.0625V14.875H6.75V13.1875H7.875L9.35156 11.7109C9.94922 11.957 10.582 12.0625 11.25 12.0625C12.1641 12.0625 13.0078 11.8516 13.7812 11.3945C14.5547 10.9375 15.1523 10.3047 15.6094 9.53125C16.0664 8.75781 16.3125 7.91406 16.3125 7C16.3125 6.08594 16.0664 5.24219 15.6094 4.46875C15.1523 3.69531 14.5547 3.09766 13.7812 2.64062C13.0078 2.18359 12.1641 1.9375 11.25 1.9375ZM11.25 0.25C12.4453 0.25 13.5703 0.566406 14.625 1.16406C15.6445 1.79688 16.4531 2.60547 17.0859 3.625C17.6836 4.67969 18 5.80469 18 7C18 8.23047 17.6836 9.35547 17.0859 10.375C16.4531 11.4297 15.6445 12.2383 14.625 12.8359C13.5703 13.4688 12.4453 13.75 11.25 13.75C10.7578 13.75 10.3008 13.7148 9.84375 13.6094L8.4375 15.0156V15.7188C8.4375 15.9648 8.33203 16.1758 8.19141 16.3164C8.01562 16.4922 7.80469 16.5625 7.59375 16.5625H6.75V17.4062C6.75 17.6523 6.64453 17.8633 6.50391 18.0039C6.32812 18.1797 6.11719 18.25 5.90625 18.25H0.84375C0.597656 18.25 0.386719 18.1797 0.246094 18.0039C0.0703125 17.8633 0 17.6523 0 17.4062V12.8359C0 12.625 0.0703125 12.4141 0.246094 12.2383L4.57031 7.91406C4.5 7.63281 4.5 7.31641 4.5 7C4.5 5.80469 4.78125 4.67969 5.41406 3.625C6.01172 2.60547 6.82031 1.79688 7.875 1.16406C8.89453 0.566406 10.0195 0.25 11.25 0.25ZM11.25 5.3125C11.25 4.85547 11.3906 4.46875 11.7422 4.11719C12.0586 3.80078 12.4453 3.625 12.9375 3.625C13.3945 3.625 13.7812 3.80078 14.1328 4.11719C14.4492 4.46875 14.625 4.85547 14.625 5.3125C14.625 5.80469 14.4492 6.19141 14.1328 6.50781C13.7812 6.85938 13.3945 7 12.9375 7C12.4453 7 12.0586 6.85938 11.7422 6.50781C11.3906 6.19141 11.25 5.80469 11.25 5.3125Z" fill="white"/>
</svg>
